<svg xmlns="http://www.w3.org/2000/svg" viewBox="0 0 32 32">
  <rect width="32" height="32" rx="6" fill="#2a3631"/>
  <!-- Left dark half -->
  <clipPath id="l"><rect x="0" y="0" width="16" height="32"/></clipPath>
  <g clip-path="url(#l)">
    <rect x="0" y="0" width="16" height="32" fill="#212121"/>
    <path d="M16 2 L8 9 L4 16 L7 24 L14 28 L16 26" fill="#2a3631" opacity="0.9"/>
  </g>
  <!-- Right light half -->
  <clipPath id="r"><rect x="16" y="0" width="16" height="32"/></clipPath>
  <g clip-path="url(#r)">
    <rect x="16" y="0" width="16" height="32" fill="#1e2e28"/>
    <path d="M16 4 Q24 10 26 16 Q24 22 18 27 L16 26" fill="#2a4a3a" opacity="0.7"/>
    <path d="M16 7 Q22 12 22 16 Q20 22 17 26" stroke="#59a288" stroke-width="1.5" fill="none" opacity="0.7" stroke-linecap="round"/>
  </g>
  <!-- Centre S -->
  <circle cx="16" cy="16" r="5" fill="#212121" opacity="0.9"/>
  <path d="M13 13.5 Q13 12.5 14.5 12 Q17 11.5 18 13 Q18.5 14 17.5 15 Q16.5 15.5 15 16 Q13.5 16.5 13.5 17.5 Q13.5 18.5 15 19 Q17 19.5 18.5 18.5"
        stroke="#59a288" stroke-width="1.4" fill="none" stroke-linecap="round"/>
</svg>
